<mxfile host="app.diagrams.net" modified="2023-06-14T13:03:53.295Z" agent="Mozilla/5.0 (X11; Ubuntu; Linux x86_64; rv:109.0) Gecko/20100101 Firefox/114.0" etag="6QFCP1dY3X3AY2_3zd7v" version="21.3.8" type="github">
  <diagram name="Page-1" id="qTZNLBK8ZLf-mDyHqY-N">
    <mxGraphModel dx="1360" dy="871" grid="1" gridSize="10" guides="1" tooltips="1" connect="1" arrows="1" fold="1" page="1" pageScale="1" pageWidth="850" pageHeight="1100" math="0" shadow="0">
      <root>
        <mxCell id="0" />
        <mxCell id="1" parent="0" />
        <mxCell id="lw3-92iF3VO7T0YSPXPX-4" style="edgeStyle=orthogonalEdgeStyle;rounded=0;orthogonalLoop=1;jettySize=auto;html=1;exitX=1;exitY=0.5;exitDx=0;exitDy=0;entryX=0;entryY=0.5;entryDx=0;entryDy=0;" edge="1" parent="1" source="lw3-92iF3VO7T0YSPXPX-5">
          <mxGeometry relative="1" as="geometry">
            <mxPoint x="674" y="451" as="targetPoint" />
          </mxGeometry>
        </mxCell>
        <mxCell id="lw3-92iF3VO7T0YSPXPX-5" value="Control model" style="rounded=1;whiteSpace=wrap;html=1;" vertex="1" parent="1">
          <mxGeometry x="490" y="421" width="120" height="60" as="geometry" />
        </mxCell>
        <mxCell id="lw3-92iF3VO7T0YSPXPX-10" style="edgeStyle=orthogonalEdgeStyle;rounded=0;orthogonalLoop=1;jettySize=auto;html=1;exitX=1;exitY=0.5;exitDx=0;exitDy=0;entryX=0;entryY=0.5;entryDx=0;entryDy=0;" edge="1" parent="1" source="lw3-92iF3VO7T0YSPXPX-12" target="lw3-92iF3VO7T0YSPXPX-5">
          <mxGeometry relative="1" as="geometry" />
        </mxCell>
        <mxCell id="lw3-92iF3VO7T0YSPXPX-12" value="&lt;div&gt;Model-based&lt;/div&gt;&lt;div&gt;optimzer&lt;br&gt;&lt;/div&gt;" style="rounded=1;whiteSpace=wrap;html=1;" vertex="1" parent="1">
          <mxGeometry x="220" y="403.5" width="190" height="95" as="geometry" />
        </mxCell>
        <mxCell id="lw3-92iF3VO7T0YSPXPX-13" value="&lt;i&gt;&lt;font style=&quot;font-size: 14px;&quot;&gt;Y(k)&lt;/font&gt;&lt;/i&gt;" style="text;html=1;align=center;verticalAlign=middle;resizable=0;points=[];autosize=1;strokeColor=none;fillColor=none;" vertex="1" parent="1">
          <mxGeometry x="610" y="411" width="50" height="30" as="geometry" />
        </mxCell>
        <mxCell id="lw3-92iF3VO7T0YSPXPX-17" value="" style="endArrow=classic;html=1;rounded=0;entryX=0;entryY=0.5;entryDx=0;entryDy=0;" edge="1" parent="1" target="lw3-92iF3VO7T0YSPXPX-12">
          <mxGeometry width="50" height="50" relative="1" as="geometry">
            <mxPoint x="90" y="451" as="sourcePoint" />
            <mxPoint x="460" y="460" as="targetPoint" />
          </mxGeometry>
        </mxCell>
        <mxCell id="lw3-92iF3VO7T0YSPXPX-18" value="&lt;i&gt;Set points, Y&lt;sub&gt;ref&lt;/sub&gt;&lt;/i&gt;" style="text;html=1;align=center;verticalAlign=middle;resizable=0;points=[];autosize=1;strokeColor=none;fillColor=none;" vertex="1" parent="1">
          <mxGeometry x="100" y="421" width="100" height="30" as="geometry" />
        </mxCell>
        <mxCell id="lw3-92iF3VO7T0YSPXPX-21" value=" &lt;font style=&quot;font-size: 16px;&quot;&gt;&lt;i&gt;&lt;span dir=&quot;ltr&quot; role=&quot;presentation&quot; style=&quot;left: 289.91px; top: 624.039px; font-family: sans-serif;&quot;&gt;âˆ†&lt;/span&gt;&lt;span dir=&quot;ltr&quot; role=&quot;presentation&quot; style=&quot;left: 302.155px; top: 624.039px; font-family: sans-serif;&quot;&gt;U&lt;/span&gt;&lt;span dir=&quot;ltr&quot; role=&quot;presentation&quot; style=&quot;left: 312.188px; top: 624.039px; font-family: sans-serif;&quot;&gt;(k) &lt;/span&gt;&lt;/i&gt;&lt;span dir=&quot;ltr&quot; role=&quot;presentation&quot; style=&quot;left: 313.789px; top: 624.039px; font-family: sans-serif;&quot;&gt;&lt;/span&gt;&lt;/font&gt;" style="text;html=1;strokeColor=none;fillColor=none;align=center;verticalAlign=middle;whiteSpace=wrap;rounded=0;" vertex="1" parent="1">
          <mxGeometry x="420" y="456" width="60" height="30" as="geometry" />
        </mxCell>
      </root>
    </mxGraphModel>
  </diagram>
</mxfile>
